<?xml version="1.0" encoding="UTF-8"?>
<svg xmlns="http://www.w3.org/2000/svg" xmlns:xlink="http://www.w3.org/1999/xlink" width="32px" height="32px" viewBox="0 0 32 32" version="1.1">
<g id="surface1">
<path style=" stroke:none;fill-rule:nonzero;fill:rgb(1.176471%,0.392157%,1.568627%);fill-opacity:1;" d="M 30.449219 16.246094 C 30.351562 16.253906 30.257812 16.261719 30.164062 16.273438 C 30.265625 16.300781 30.363281 16.292969 30.449219 16.246094 Z M 30.449219 16.246094 "/>
<path style=" stroke:none;fill-rule:nonzero;fill:rgb(1.176471%,0.392157%,1.568627%);fill-opacity:1;" d="M 31.730469 11.757812 C 28.253906 8.566406 30.660156 5.539062 32 4.671875 C 23.199219 8.15625 23.757812 17.144531 22.300781 18.082031 C 20.910156 19.007812 19.613281 17.730469 18.964844 16.519531 C 19.367188 18.078125 17.730469 19.113281 16.546875 17.367188 C 16.867188 19.753906 17.671875 21.332031 14.375 20.445312 C 10.75 19.46875 4.644531 16.5 0 20.257812 C 2.714844 20.050781 5.660156 22.207031 5.527344 24.625 C 7.4375 23.175781 10.414062 25.058594 10.371094 27.328125 C 11.253906 24.882812 15.164062 24.328125 16.941406 26.570312 C 16.289062 22.597656 21.175781 23.253906 22.203125 25.78125 C 20.917969 20.414062 24.816406 20.21875 27 21.4375 C 26.207031 18 27.515625 16.578125 30.164062 16.273438 C 29.085938 15.992188 27.46875 11.914062 31.730469 11.757812 Z M 31.730469 11.757812 "/>
</g>
</svg>
